HIERARCHY
ROOT hip
{
	OFFSET 0.000000 0.000000 0.000000
	CHANNELS 6 Xposition Yposition Zposition Zrotation Yrotation Xrotation 
	JOINT lhipjoint
	{
		OFFSET 0.000000 0.000000 0.000000
		CHANNELS 3 Zrotation Yrotation Xrotation
		JOINT lfemur
		{
			OFFSET 1.363060 -1.794630 0.839290
			CHANNELS 3 Zrotation Yrotation Xrotation
			JOINT ltibia
			{
				OFFSET 2.448110 -6.726130 0.000000
				CHANNELS 3 Zrotation Yrotation Xrotation
				JOINT lfoot
				{
					OFFSET 2.562200 -7.039590 0.000000
					CHANNELS 3 Zrotation Yrotation Xrotation
					JOINT ltoes
					{
						OFFSET 0.157640 -0.433110 2.322550
						CHANNELS 3 Zrotation Yrotation Xrotation
						End Site
						{
							OFFSET 0.000000 0.000000 0.000000
						}
					}
				}
			}
		}
	}
	JOINT rhipjoint
	{
		OFFSET 0.000000 0.000000 0.000000
		CHANNELS 3 Zrotation Yrotation Xrotation
		JOINT rfemur
		{
			OFFSET -1.305520 -1.794630 0.839290
			CHANNELS 3 Zrotation Yrotation Xrotation
			JOINT rtibia
			{
				OFFSET -2.542530 -6.985550 0.000000
				CHANNELS 3 Zrotation Yrotation Xrotation
				JOINT rfoot
				{
					OFFSET -2.568260 -7.056230 0.000000
					CHANNELS 3 Zrotation Yrotation Xrotation
					JOINT rtoes
					{
						OFFSET -0.164730 -0.452590 2.363150
						CHANNELS 3 Zrotation Yrotation Xrotation
						End Site
						{
							OFFSET 0.000000 0.000000 0.000000
						}
					}
				}
			}
		}
	}
	JOINT lowerback
	{
		OFFSET 0.000000 0.000000 0.000000
		CHANNELS 3 Zrotation Yrotation Xrotation
		JOINT upperback
		{
			OFFSET 0.028270 2.035590 -0.193380
			CHANNELS 3 Zrotation Yrotation Xrotation
			JOINT thorax
			{
				OFFSET 0.056720 2.048850 -0.042750
				CHANNELS 3 Zrotation Yrotation Xrotation
				JOINT lowerneck
				{
					OFFSET 0.000000 0.000000 0.000000
					CHANNELS 3 Zrotation Yrotation Xrotation
					JOINT upperneck
					{
						OFFSET -0.054170 1.746240 0.172020
						CHANNELS 3 Zrotation Yrotation Xrotation
						JOINT head
						{
							OFFSET 0.104070 1.761360 -0.123970
							CHANNELS 3 Zrotation Yrotation Xrotation
							End Site
							{
								OFFSET 0.000000 0.000000 0.000000
							}
						}
					}
				}
				JOINT lclavicle
				{
					OFFSET 0.000000 0.000000 0.000000
					CHANNELS 3 Zrotation Yrotation Xrotation
					JOINT lhumerus
					{
						OFFSET 3.362410 1.200890 -0.311210
						CHANNELS 3 Zrotation Yrotation Xrotation
						JOINT lradius
						{
							OFFSET 4.983000 -0.000000 -0.000000
							CHANNELS 3 Zrotation Yrotation Xrotation
							JOINT lwrist
							{
								OFFSET 3.483560 -0.000000 -0.000000
								CHANNELS 3 Zrotation Yrotation Xrotation
								JOINT lhand
								{
									OFFSET 0.000000 0.000000 0.000000
									CHANNELS 3 Zrotation Yrotation Xrotation
									JOINT lfingers
									{
										OFFSET 0.715260 -0.000000 -0.000000
										CHANNELS 3 Zrotation Yrotation Xrotation
										End Site
										{
											OFFSET 0.000000 0.000000 0.000000
										}
									}
								}
								JOINT lthumb
								{
									OFFSET 0.000000 0.000000 0.000000
									CHANNELS 3 Zrotation Yrotation Xrotation
									End Site
									{
										OFFSET 0.000000 0.000000 0.000000
									}
								}
							}
						}
					}
				}
				JOINT rclavicle
				{
					OFFSET 0.000000 0.000000 0.000000
					CHANNELS 3 Zrotation Yrotation Xrotation
					JOINT rhumerus
					{
						OFFSET -3.136600 1.374050 -0.404650
						CHANNELS 3 Zrotation Yrotation Xrotation
						JOINT rradius
						{
							OFFSET -5.241900 -0.000000 -0.000000
							CHANNELS 3 Zrotation Yrotation Xrotation
							JOINT rwrist
							{
								OFFSET -3.444170 -0.000000 -0.000000
								CHANNELS 3 Zrotation Yrotation Xrotation
								JOINT rhand
								{
									OFFSET 0.000000 0.000000 0.000000
									CHANNELS 3 Zrotation Yrotation Xrotation
									JOINT rfingers
									{
										OFFSET -0.622530 -0.000000 -0.000000
										CHANNELS 3 Zrotation Yrotation Xrotation
										End Site
										{
											OFFSET 0.000000 0.000000 0.000000
										}
									}
								}
								JOINT rthumb
								{
									OFFSET 0.000000 0.000000 0.000000
									CHANNELS 3 Zrotation Yrotation Xrotation
									End Site
									{
										OFFSET 0.000000 0.000000 0.000000
									}
								}
							}
						}
					}
				}
			}
		}
	}
}
MOTION
Frames: 6
Frame Time: 0.008333
-1.036110 17.457878 -0.109156 -172.344374 39.521835 173.690051 -3.021713 2.349758 1.534129 -10.107799 2.248312 -10.722145 4.235289 12.031454 37.717386 1.088876 -4.383563 -3.283440 0.049300 -1.433600 -3.942700 -0.435332 -3.516443 0.660092 24.347418 -0.976107 -12.830119 -7.832140 -14.034152 50.822033 1.751816 -10.282523 -10.244938 -0.016100 -0.818200 2.248600 1.488437 -0.389517 31.005533 0.854635 2.419646 -1.015252 0.679832 2.931923 4.377590 1.845730 -1.279221 -10.190612 -3.461114 2.067723 -8.127647 0.934200 2.698500 -3.293800 0.448988 3.720192 1.307283 -75.532672 -1.438609 36.520980 56.655016 -63.347767 -29.029654 0.879797 -0.426630 146.024809 28.567361 18.215076 9.305200 -7.125000 0.000000 0.000000 1.159600 49.411200 0.126100 1.434947 1.140804 3.713693 70.067151 -2.784030 36.361050 -96.903370 58.044709 -51.316351 0.726844 -3.509348 96.780452 -1.333639 -13.262151 1.177800 7.125000 0.000000 0.000000 20.608700 -43.414000 0.845000 
-1.052817 17.467000 -0.113563 -172.300138 40.131101 173.746462 -3.034211 2.359390 1.546531 -10.139358 2.371482 -10.563861 4.195330 11.978382 37.514231 1.021440 -3.919068 -3.558608 0.050400 -1.448100 -3.982700 -0.447310 -3.549645 0.679209 24.104066 -1.579902 -12.406585 -7.849908 -14.031826 50.846237 1.873106 -10.802150 -10.375796 -0.028300 -1.085100 2.982900 1.643522 -0.366162 30.418871 0.855901 2.377128 -1.058215 0.597804 2.900023 4.394213 1.921019 -1.057342 -10.077578 -3.516121 2.271749 -7.843633 0.898900 2.749600 -3.192700 0.430181 3.687298 1.313826 -75.642067 -0.707264 36.129377 58.186279 -63.800363 -30.101777 0.941953 -0.437569 145.569800 28.403917 18.346544 9.294800 -7.125000 0.000000 0.000000 1.026600 49.468000 0.113100 1.458794 1.151572 3.681582 70.053147 -3.371089 36.775528 -98.306743 57.624068 -52.698239 0.729986 -3.485053 96.705057 -1.415740 -13.198739 1.187000 7.125000 0.000000 0.000000 20.533300 -43.355600 0.872600 
-1.066961 17.475712 -0.116126 -172.260770 40.737118 173.785338 -3.046371 2.371732 1.560442 -10.145921 2.539732 -10.423179 4.157226 11.931019 37.325503 0.960033 -3.511904 -3.769890 0.048200 -1.416800 -3.896600 -0.460715 -3.582706 0.697138 23.862358 -2.198962 -11.949277 -7.859815 -14.019382 50.832494 2.016227 -11.405083 -10.506160 -0.038600 -1.267700 3.485700 1.756441 -0.327223 29.869211 0.865978 2.356676 -1.102834 0.581608 2.868211 4.385708 1.998950 -0.836099 -9.946305 -3.598576 2.471859 -7.570797 0.843900 2.796600 -3.096400 0.421342 3.648371 1.320670 -75.774552 0.034189 35.776239 59.638166 -64.211211 -31.109803 1.009407 -0.440838 145.057329 28.208287 18.599116 9.336900 -7.125000 0.000000 0.000000 0.850100 49.656200 0.097600 1.488635 1.159644 3.649452 70.013868 -3.948932 37.155340 -99.593456 57.226446 -54.004943 0.718074 -3.464139 96.626332 -1.591856 -13.203297 1.225000 7.125000 0.000000 0.000000 20.390500 -43.356400 0.865600 
-1.080285 17.482989 -0.115613 -172.231393 41.327997 173.835377 -3.058069 2.384017 1.574589 -10.148717 2.748525 -10.347256 4.122547 11.888004 37.154122 0.904032 -3.150600 -3.939800 0.049700 -1.439200 -3.958000 -0.473440 -3.615926 0.716441 23.629764 -2.806392 -11.503120 -7.866549 -14.001717 50.797817 2.187546 -12.116002 -10.634464 -0.043200 -1.341200 3.688100 1.850176 -0.283171 29.339887 0.878252 2.338139 -1.155389 0.586600 2.832193 4.340105 2.057828 -0.610442 -9.811869 -3.659899 2.677184 -7.287947 0.802800 2.847300 -2.993200 0.411153 3.602048 1.323455 -75.883463 0.830304 35.445553 61.220435 -64.627712 -32.206182 1.083724 -0.447679 144.577237 28.006160 18.856595 9.374800 -7.125000 0.000000 0.000000 0.670100 49.838800 0.079900 1.517164 1.169013 3.615671 69.968715 -4.511369 37.512952 -100.846478 56.827040 -55.315114 0.702561 -3.442984 96.527317 -1.798030 -13.232210 1.272200 7.125000 0.000000 0.000000 20.227700 -43.378300 0.846600 
-1.092584 17.488318 -0.113153 -172.164616 41.947911 173.903217 -3.070105 2.396835 1.590782 -10.112992 2.934097 -10.266460 4.093226 11.854066 37.008481 0.843967 -2.762882 -4.143222 0.049400 -1.434700 -3.945800 -0.488593 -3.651234 0.735993 23.423635 -3.412199 -11.021869 -7.863399 -13.973488 50.728538 2.339573 -12.759179 -10.831148 -0.046700 -1.394200 3.834300 1.957529 -0.232628 28.848815 0.897150 2.337728 -1.213499 0.614648 2.801582 4.260261 2.132874 -0.371642 -9.680226 -3.757040 2.885896 -6.981637 0.739300 2.893500 -2.870300 0.409952 3.546267 1.325921 -76.053124 1.653149 35.081363 62.899826 -65.035728 -33.365042 1.163343 -0.457151 144.091769 27.827877 19.073224 9.396900 -7.125000 0.000000 0.000000 0.522500 49.971400 0.064000 1.550285 1.178292 3.579479 69.921025 -5.099821 37.844107 -102.037561 56.441787 -56.583787 0.669530 -3.420906 96.490051 -2.118827 -13.285285 1.348800 7.125000 0.000000 0.000000 19.968700 -43.420500 0.813000 
-1.104884 17.494263 -0.110283 -172.135748 42.563338 173.951071 -3.082482 2.410192 1.606466 -10.107822 3.107303 -10.200007 4.067960 11.822856 36.879264 0.779955 -2.364156 -4.330419 0.047300 -1.403500 -3.859900 -0.503158 -3.686665 0.756526 23.176619 -4.003154 -10.525271 -7.851517 -13.938576 50.626327 2.491999 -13.406046 -11.059949 -0.043200 -1.341600 3.689200 2.045225 -0.179847 28.364333 0.914740 2.334565 -1.274069 0.645489 2.768546 4.164693 2.209211 -0.135454 -9.528734 -3.848177 3.097357 -6.694354 0.676900 2.943800 -2.760800 0.407208 3.490702 1.325866 -76.207956 2.519301 34.724309 64.729754 -65.437650 -34.625519 1.249892 -0.471721 143.627046 27.645847 19.257684 9.396700 -7.125000 0.000000 0.000000 0.379700 50.056700 0.047300 1.581134 1.188806 3.545323 69.880954 -5.675215 38.128118 -103.165449 56.073868 -57.807329 0.629621 -3.394742 96.457117 -2.499059 -13.318695 1.436900 7.125000 0.000000 0.000000 19.650900 -43.442800 0.787600 
